<svg width="21" height="9" viewBox="0 0 21 9" fill="none" xmlns="http://www.w3.org/2000/svg">
<path fill-rule="evenodd" clip-rule="evenodd" d="M5.85981 0.116733C5.6729 -0.0389109 5.36985 -0.0389109 5.18293 0.116733L0.140187 4.31579L0.0840028 4.37195C-0.0467075 4.53002 -0.0245865 4.74876 0.148335 4.88605L5.19108 8.88989L5.25866 8.93468C5.44823 9.03856 5.70562 9.01808 5.86777 8.87648L5.92156 8.8202C6.04631 8.66236 6.02172 8.44802 5.85166 8.31301L1.67891 5H20.5238L20.6094 4.99194C20.8315 4.94961 21 4.74546 21 4.5C21 4.22386 20.7868 4 20.5238 4H1.87229L5.85981 0.680368L5.91519 0.625171C6.04442 0.469841 6.02596 0.255083 5.85981 0.116733Z" fill="#E6E6EB"/>
</svg>
