<svg width="24" height="24" viewBox="0 0 24 24" fill="none" xmlns="http://www.w3.org/2000/svg">
<path fill-rule="evenodd" clip-rule="evenodd" d="M6.98421 5.66663L6.71575 4.51331C6.50676 3.62373 5.7579 2.99995 4.89901 3H4V4.33331H4.89901C5.19287 4.32417 5.45289 4.53519 5.52332 4.83997L7.74587 14.4932L7.97686 15.4865C8.18752 16.3833 8.94647 17.0091 9.81234 16.9998H18.3592V15.6665H9.81234C9.51848 15.6756 9.25846 15.4646 9.18803 15.1598L9.11311 14.8265L18.3592 12.4999C19.0427 12.3302 19.5801 11.7666 19.7514 11.0399L21 5.66663H6.98421ZM18.5652 10.7199C18.5074 10.9633 18.3264 11.1515 18.097 11.2065L8.82593 13.5332L7.29636 6.99994H19.433L18.5652 10.7199ZM7 19C7 17.8954 7.89543 17 9 17C10.1046 17 11 17.8954 11 19C11 20.1046 10.1046 21 9 21C7.89543 21 7 20.1046 7 19ZM8.33333 19C8.33333 19.3682 8.63181 19.6667 9 19.6667C9.36819 19.6667 9.66667 19.3682 9.66667 19C9.66667 18.6318 9.36819 18.3333 9 18.3333C8.63181 18.3333 8.33333 18.6318 8.33333 19ZM14.1523 18.2346C14.4619 17.4873 15.1911 17 16 17C17.1046 17 18 17.8954 18 19C18 19.8089 17.5127 20.5381 16.7654 20.8477C16.018 21.1573 15.1578 20.9862 14.5858 20.4142C14.0138 19.8422 13.8427 18.982 14.1523 18.2346ZM15.3334 19C15.3334 19.3682 15.6318 19.6666 16 19.6666C16.3682 19.6666 16.6667 19.3682 16.6667 19C16.6667 18.6318 16.3682 18.3333 16 18.3333C15.6318 18.3333 15.3334 18.6318 15.3334 19Z" fill="black"/>
</svg>
