<svg width="24" height="24" viewBox="0 0 24 24" fill="none" xmlns="http://www.w3.org/2000/svg">
<path fill-rule="evenodd" clip-rule="evenodd" d="M10.2703 16.5405C6.8073 16.5405 4 13.7332 4 10.2703C4 6.8073 6.8073 4 10.2703 4C13.7332 4 16.5405 6.8073 16.5405 10.2703C16.5405 11.7681 16.0153 13.1433 15.139 14.2217L19.81 18.8927C20.0633 19.146 20.0633 19.5567 19.81 19.81C19.5567 20.0633 19.146 20.0633 18.8927 19.81L14.2217 15.139C13.1433 16.0153 11.7681 16.5405 10.2703 16.5405ZM10.2703 15.2432C13.0168 15.2432 15.2432 13.0168 15.2432 10.2703C15.2432 7.52377 13.0168 5.2973 10.2703 5.2973C7.52377 5.2973 5.2973 7.52377 5.2973 10.2703C5.2973 13.0168 7.52377 15.2432 10.2703 15.2432Z" fill="black"/>
</svg>
